<svg width="20" height="20" viewBox="0 0 20 20" fill="none" xmlns="http://www.w3.org/2000/svg">
<g clip-path="url(#clip0_316_263)">
<path d="M2.5 4.16665V15.8333C2.49996 15.9799 2.5386 16.124 2.61203 16.2509C2.68547 16.3778 2.79109 16.4831 2.91823 16.5561C3.04537 16.6292 3.18953 16.6674 3.33616 16.6669C3.48279 16.6664 3.62669 16.6272 3.75333 16.5533L13.7533 10.72C13.8792 10.6466 13.9837 10.5415 14.0563 10.4152C14.1289 10.2889 14.1671 10.1457 14.1671 9.99998C14.1671 9.85427 14.1289 9.71111 14.0563 9.58477C13.9837 9.45844 13.8792 9.35335 13.7533 9.27998L3.75333 3.44665C3.62669 3.37275 3.48279 3.33357 3.33616 3.33307C3.18953 3.33258 3.04537 3.37077 2.91823 3.44381C2.79109 3.51685 2.68547 3.62215 2.61203 3.74906C2.5386 3.87598 2.49996 4.02002 2.5 4.16665Z" fill="#CCCCCC"/>
<path d="M16.6663 3.33334C16.8705 3.33337 17.0675 3.40831 17.22 3.54394C17.3725 3.67957 17.47 3.86647 17.4938 4.06918L17.4997 4.16668V15.8333C17.4994 16.0457 17.4181 16.25 17.2723 16.4045C17.1265 16.5589 16.9272 16.6519 16.7152 16.6643C16.5031 16.6768 16.2944 16.6078 16.1315 16.4715C15.9686 16.3351 15.8639 16.1418 15.8388 15.9308L15.833 15.8333V4.16668C15.833 3.94566 15.9208 3.7337 16.0771 3.57742C16.2334 3.42114 16.4453 3.33334 16.6663 3.33334Z" fill="#CCCCCC"/>
</g>
<defs>
<clipPath id="clip0_316_263">
<rect width="20" height="20" fill="white"/>
</clipPath>
</defs>
</svg>
