<svg width="32" height="32" viewBox="0 0 32 32" fill="none" xmlns="http://www.w3.org/2000/svg">
<rect x="0.75" y="0.75" width="30.5" height="30.5" rx="15.25" fill="#CCCCCC"/>
<rect x="0.75" y="0.75" width="30.5" height="30.5" rx="15.25" stroke="#CCCCCC" stroke-width="1.5"/>
<g clip-path="url(#clip0_316_259)">
<path d="M11.1665 9.33332V22.6667C11.1665 22.8149 11.206 22.9605 11.281 23.0884C11.356 23.2163 11.4638 23.3219 11.5932 23.3943C11.7226 23.4666 11.869 23.5031 12.0172 23.5C12.1655 23.4969 12.3102 23.4544 12.4365 23.3767L23.2698 16.71C23.3912 16.6354 23.4914 16.531 23.5609 16.4067C23.6304 16.2824 23.6669 16.1424 23.6669 16C23.6669 15.8576 23.6304 15.7175 23.5609 15.5933C23.4914 15.469 23.3912 15.3645 23.2698 15.29L12.4365 8.62332C12.3102 8.54563 12.1655 8.50303 12.0172 8.49994C11.869 8.49684 11.7226 8.53335 11.5932 8.60571C11.4638 8.67806 11.356 8.78364 11.281 8.91154C11.206 9.03945 11.1665 9.18505 11.1665 9.33332Z" fill="#141414"/>
</g>
<defs>
<clipPath id="clip0_316_259">
<rect width="20" height="20" fill="white" transform="translate(6 6)"/>
</clipPath>
</defs>
</svg>
