<svg width="20" height="20" viewBox="0 0 20 20" fill="none" xmlns="http://www.w3.org/2000/svg">
<g clip-path="url(#clip0_316_255)">
<path d="M16.2468 3.44668L6.24676 9.28001C6.12087 9.35338 6.01641 9.45847 5.94381 9.5848C5.87121 9.71114 5.83301 9.8543 5.83301 10C5.83301 10.1457 5.87121 10.2889 5.94381 10.4152C6.01641 10.5416 6.12087 10.6466 6.24676 10.72L16.2468 16.5533C16.3734 16.6272 16.5173 16.6664 16.6639 16.6669C16.8106 16.6674 16.9547 16.6292 17.0819 16.5562C17.209 16.4831 17.3146 16.3778 17.3881 16.2509C17.4615 16.124 17.5001 15.98 17.5001 15.8333V4.16668C17.5001 4.02005 17.4615 3.87601 17.3881 3.74909C17.3146 3.62218 17.209 3.51688 17.0819 3.44384C16.9547 3.37081 16.8106 3.33261 16.6639 3.3331C16.5173 3.3336 16.3734 3.37278 16.2468 3.44668Z" fill="#CCCCCC"/>
<path d="M3.33333 3.33331C3.53744 3.33334 3.73445 3.40828 3.88698 3.54391C4.03951 3.67954 4.13695 3.86644 4.16083 4.06915L4.16667 4.16665V15.8333C4.16643 16.0457 4.0851 16.25 3.93929 16.4045C3.79349 16.5589 3.59421 16.6518 3.38217 16.6643C3.17014 16.6767 2.96135 16.6078 2.79847 16.4714C2.6356 16.3351 2.53092 16.1417 2.50583 15.9308L2.5 15.8333V4.16665C2.5 3.94563 2.5878 3.73367 2.74408 3.57739C2.90036 3.42111 3.11232 3.33331 3.33333 3.33331Z" fill="#CCCCCC"/>
</g>
<defs>
<clipPath id="clip0_316_255">
<rect width="20" height="20" fill="white"/>
</clipPath>
</defs>
</svg>
