<svg width="32" height="32" viewBox="0 0 32 32" fill="none" xmlns="http://www.w3.org/2000/svg">
<path d="M0 16C0 7.16344 7.16344 0 16 0C24.8366 0 32 7.16344 32 16C32 24.8366 24.8366 32 16 32C7.16344 32 0 24.8366 0 16Z" fill="#D9D9D9"/>
<path d="M11 9.83357V23.1669C11 23.3152 11.0395 23.4608 11.1145 23.5887C11.1895 23.7166 11.2973 23.8222 11.4267 23.8945C11.5561 23.9669 11.7025 24.0034 11.8507 24.0003C11.999 23.9972 12.1437 23.9546 12.27 23.8769L23.1033 17.2102C23.2247 17.1357 23.3249 17.0313 23.3944 16.907C23.4639 16.7827 23.5004 16.6426 23.5004 16.5002C23.5004 16.3578 23.4639 16.2178 23.3944 16.0935C23.3249 15.9692 23.2247 15.8648 23.1033 15.7902L12.27 9.12357C12.1437 9.04587 11.999 9.00328 11.8507 9.00018C11.7025 8.99709 11.5561 9.0336 11.4267 9.10595C11.2973 9.17831 11.1895 9.28388 11.1145 9.41179C11.0395 9.53969 11 9.68529 11 9.83357Z" fill="#141414"/>
</svg>
