<svg width="32" height="32" viewBox="0 0 32 32" fill="none" xmlns="http://www.w3.org/2000/svg">
<path d="M0 16C0 7.16344 7.16344 0 16 0C24.8366 0 32 7.16344 32 16C32 24.8366 24.8366 32 16 32C7.16344 32 0 24.8366 0 16Z" fill="#D9D9D9"/>
<g clip-path="url(#clip0_388_2)">
<path d="M13 8H11C10.4696 8 9.96086 8.21071 9.58579 8.58579C9.21071 8.96086 9 9.46957 9 10V22C9 22.5304 9.21071 23.0391 9.58579 23.4142C9.96086 23.7893 10.4696 24 11 24H13C13.5304 24 14.0391 23.7893 14.4142 23.4142C14.7893 23.0391 15 22.5304 15 22V10C15 9.46957 14.7893 8.96086 14.4142 8.58579C14.0391 8.21071 13.5304 8 13 8Z" fill="#141414"/>
<path d="M21 8H19C18.4696 8 17.9609 8.21071 17.5858 8.58579C17.2107 8.96086 17 9.46957 17 10V22C17 22.5304 17.2107 23.0391 17.5858 23.4142C17.9609 23.7893 18.4696 24 19 24H21C21.5304 24 22.0391 23.7893 22.4142 23.4142C22.7893 23.0391 23 22.5304 23 22V10C23 9.46957 22.7893 8.96086 22.4142 8.58579C22.0391 8.21071 21.5304 8 21 8Z" fill="#141414"/>
</g>
<defs>
<clipPath id="clip0_388_2">
<rect width="24" height="24" fill="white" transform="translate(4 4)"/>
</clipPath>
</defs>
</svg>
