<svg width="20" height="24" viewBox="0 0 20 24" fill="none" xmlns="http://www.w3.org/2000/svg">
<path d="M5.29397e-08 1.33367V22.6663C-6.679e-05 22.9036 0.0631645 23.1365 0.18317 23.3412C0.303175 23.5458 0.475608 23.7147 0.682678 23.8305C0.889749 23.9462 1.12396 24.0047 1.36114 23.9997C1.59832 23.9948 1.82988 23.9266 2.03194 23.8023L19.3647 13.136C19.5589 13.0167 19.7192 12.8496 19.8304 12.6508C19.9416 12.4519 20 12.2278 20 12C20 11.7722 19.9416 11.5481 19.8304 11.3492C19.7192 11.1504 19.5589 10.9833 19.3647 10.864L2.03194 0.197703C1.82988 0.073393 1.59832 0.00524533 1.36114 0.000290866C1.12396 -0.0046636 0.889749 0.0537546 0.682678 0.169518C0.475608 0.285282 0.303175 0.454198 0.18317 0.658839C0.0631645 0.86348 -6.679e-05 1.09643 5.29397e-08 1.33367Z" fill="#CCCCCC"/>
</svg>
