<svg width="16" height="16" viewBox="0 0 16 16" fill="none" xmlns="http://www.w3.org/2000/svg">
<g clip-path="url(#clip0_153_282)">
<path d="M13.25 4.18001C13.7167 4.44534 14.0033 4.94201 14 5.47868V10.3347C14 10.874 13.7047 11.3713 13.228 11.6333L8.728 14.48C8.5049 14.6025 8.25451 14.6667 8 14.6667C7.74549 14.6667 7.4951 14.6025 7.272 14.48L2.772 11.6333C2.53878 11.5059 2.34408 11.3181 2.20827 11.0897C2.07247 10.8612 2.00053 10.6005 2 10.3347V5.47801C2 4.93868 2.29533 4.44201 2.772 4.18001L7.272 1.52668C7.50169 1.40004 7.75971 1.33362 8.022 1.33362C8.28429 1.33362 8.54231 1.40004 8.772 1.52668L13.272 4.18001H13.25Z" stroke="white" stroke-linecap="round" stroke-linejoin="round"/>
<path d="M8 10.6666V10.675" stroke="white" stroke-linecap="round" stroke-linejoin="round"/>
<path d="M8 8.66663C8.29983 8.66753 8.59122 8.56735 8.8271 8.38225C9.06299 8.19716 9.2296 7.93796 9.30003 7.64651C9.37046 7.35507 9.34061 7.04839 9.21529 6.776C9.08996 6.50362 8.87649 6.28142 8.60933 6.1453C8.34412 6.00944 8.04074 5.96731 7.74854 6.02578C7.45634 6.08424 7.19252 6.23985 7 6.4673" stroke="white" stroke-linecap="round" stroke-linejoin="round"/>
</g>
<defs>
<clipPath id="clip0_153_282">
<rect width="16" height="16" fill="white"/>
</clipPath>
</defs>
</svg>
